<svg width="11" height="18" viewBox="0 0 11 18" fill="none" xmlns="http://www.w3.org/2000/svg">
<path d="M8.98052 0.490242C8.72072 0.497983 8.47414 0.606562 8.29302 0.792976L0.79302 8.29298C0.605555 8.48052 0.500244 8.73484 0.500244 9.00001C0.500244 9.26518 0.605555 9.5195 0.79302 9.70704L8.29302 17.207C8.38517 17.303 8.49554 17.3796 8.61767 17.4324C8.73979 17.4852 8.87123 17.5131 9.00427 17.5145C9.13731 17.5158 9.26929 17.4906 9.39246 17.4403C9.51564 17.39 9.62755 17.3157 9.72163 17.2216C9.8157 17.1275 9.89007 17.0156 9.94035 16.8924C9.99064 16.7692 10.0159 16.6373 10.0145 16.5042C10.0131 16.3712 9.98526 16.2397 9.93247 16.1176C9.87968 15.9955 9.80306 15.8851 9.70709 15.793L2.91411 9.00001L9.70709 2.20704C9.85159 2.06658 9.95029 1.88574 9.99024 1.68822C10.0302 1.4907 10.0096 1.28571 9.93102 1.10013C9.85248 0.91454 9.7197 0.757011 9.5501 0.648182C9.38049 0.539353 9.18196 0.484302 8.98052 0.490242Z" fill="#637394"/>
</svg>
