<svg width="121" height="131" viewBox="0 0 121 131" fill="none" xmlns="http://www.w3.org/2000/svg">
<g filter="url(#filter0_d_430_165)">
<path fill-rule="evenodd" clip-rule="evenodd" d="M99.8033 42.3914C102.642 42.2152 104.833 39.8895 104.833 37.1057V24.6667C104.833 17.8657 99.1925 12.3333 92.2583 12.3333L67.0521 12.3333C64.1066 12.3333 61.7188 14.7211 61.7188 17.6667V19.3809C61.7188 22.3057 59.3116 24.6667 56.3295 24.6667C53.3474 24.6667 50.9402 22.3057 50.9402 19.3809V17.6667C50.9402 14.7211 48.5524 12.3333 45.6068 12.3333L29.4084 12.3333C22.4741 12.3333 16.8333 17.8657 16.8333 24.6667V98.6667C16.8333 105.468 22.4741 111 29.4084 111H45.6068C48.5524 111 50.9402 108.612 50.9402 105.667V103.952C50.9402 101.028 53.3474 98.6667 56.3295 98.6667C59.3116 98.6667 61.7188 101.028 61.7188 103.952V105.667C61.7188 108.612 64.1066 111 67.0521 111L92.2583 111C99.1925 111 104.833 105.468 104.833 98.6667V86.2276C104.833 83.4438 102.642 81.1181 99.8033 80.9419C89.5277 80.3076 81.4796 71.8152 81.4796 61.6667C81.4796 51.5181 89.5277 43.0257 99.8033 42.3914ZM56.3295 88.0952C59.3116 88.0952 61.7188 85.7343 61.7188 82.8095V72.2381C61.7188 69.3133 59.3116 66.9524 56.3295 66.9524C53.3474 66.9524 50.9402 69.3133 50.9402 72.2381V82.8095C50.9402 85.7343 53.3474 88.0952 56.3295 88.0952ZM56.3295 56.3809C59.3116 56.3809 61.7188 54.02 61.7188 51.0952V40.5238C61.7188 37.599 59.3116 35.2381 56.3295 35.2381C53.3474 35.2381 50.9402 37.599 50.9402 40.5238V51.0952C50.9402 54.02 53.3474 56.3809 56.3295 56.3809Z" fill="white"/>
</g>
<g filter="url(#filter1_d_430_165)">
<path fill-rule="evenodd" clip-rule="evenodd" d="M51.0673 102.803C41.4043 92.3445 35.5 78.3618 35.5 63C35.5 47.2192 41.7308 32.8937 51.8664 22.3493C52.8347 23.7491 54.4704 24.6667 56.3295 24.6667C59.3116 24.6667 61.7188 22.3057 61.7188 19.3809V17.6667C61.7188 14.7211 64.1066 12.3333 67.0521 12.3333L92.2583 12.3333C99.1925 12.3333 104.833 17.8657 104.833 24.6667V37.1057C104.833 39.8895 102.642 42.2152 99.8033 42.3914C89.5277 43.0257 81.4796 51.5181 81.4796 61.6667C81.4796 71.8152 89.5277 80.3076 99.8033 80.9419C102.642 81.1181 104.833 83.4438 104.833 86.2276V98.6667C104.833 105.468 99.1925 111 92.2583 111L67.0521 111C64.1066 111 61.7188 108.612 61.7188 105.667V103.952C61.7188 101.028 59.3116 98.6667 56.3295 98.6667C53.7501 98.6667 51.6008 100.433 51.0673 102.803ZM61.7188 82.8095C61.7188 85.7343 59.3116 88.0952 56.3295 88.0952C53.3474 88.0952 50.9402 85.7343 50.9402 82.8095V72.2381C50.9402 69.3133 53.3474 66.9524 56.3295 66.9524C59.3116 66.9524 61.7188 69.3133 61.7188 72.2381V82.8095ZM61.7188 51.0952C61.7188 54.02 59.3116 56.3809 56.3295 56.3809C53.3474 56.3809 50.9402 54.02 50.9402 51.0952V40.5238C50.9402 37.599 53.3474 35.2381 56.3295 35.2381C59.3116 35.2381 61.7188 37.599 61.7188 40.5238V51.0952Z" fill="#FF8036"/>
</g>
<defs>
<filter id="filter0_d_430_165" x="0.833336" y="0.333328" width="120" height="130.667" filterUnits="userSpaceOnUse" color-interpolation-filters="sRGB">
<feFlood flood-opacity="0" result="BackgroundImageFix"/>
<feColorMatrix in="SourceAlpha" type="matrix" values="0 0 0 0 0 0 0 0 0 0 0 0 0 0 0 0 0 0 127 0" result="hardAlpha"/>
<feOffset dy="4"/>
<feGaussianBlur stdDeviation="8"/>
<feComposite in2="hardAlpha" operator="out"/>
<feColorMatrix type="matrix" values="0 0 0 0 1 0 0 0 0 1 0 0 0 0 1 0 0 0 0.1 0"/>
<feBlend mode="normal" in2="BackgroundImageFix" result="effect1_dropShadow_430_165"/>
<feBlend mode="normal" in="SourceGraphic" in2="effect1_dropShadow_430_165" result="shape"/>
</filter>
<filter id="filter1_d_430_165" x="19.5" y="0.333332" width="101.333" height="130.667" filterUnits="userSpaceOnUse" color-interpolation-filters="sRGB">
<feFlood flood-opacity="0" result="BackgroundImageFix"/>
<feColorMatrix in="SourceAlpha" type="matrix" values="0 0 0 0 0 0 0 0 0 0 0 0 0 0 0 0 0 0 127 0" result="hardAlpha"/>
<feOffset dy="4"/>
<feGaussianBlur stdDeviation="8"/>
<feComposite in2="hardAlpha" operator="out"/>
<feColorMatrix type="matrix" values="0 0 0 0 1 0 0 0 0 0.501961 0 0 0 0 0.211765 0 0 0 0.25 0"/>
<feBlend mode="normal" in2="BackgroundImageFix" result="effect1_dropShadow_430_165"/>
<feBlend mode="normal" in="SourceGraphic" in2="effect1_dropShadow_430_165" result="shape"/>
</filter>
</defs>
</svg>
